<svg id="Capa_1" enable-background="new 0 0 512 512" height="512" viewBox="0 0 512 512" width="512" xmlns="http://www.w3.org/2000/svg"><g><path d="m437 204v15 15h60v-15-15z" fill="#3d5b99"/><path d="m437 219h60v15h-60z" fill="#334280"/><path d="m90 230.016-30 48.984-23.027 114.137c-1.714 8.613.483 17.432 6.064 24.258 9.185 11.147 19.95 9.93 22.998 10.605 13.887 0 25.942-9.858 28.652-23.438l34.541-171.72z" fill="#334280"/><path d="m355.789 219 96.211 96.211v-96.211-96.211z" fill="#ffdf40"/><path d="m452 219h-96.211l96.211 96.211z" fill="#ffbe40"/><g><path d="m300 189h-60c0-41.353-33.647-75-75-75h-15v-30h45c57.891 0 105 47.109 105 105z" fill="#3d5b99"/></g><path d="m331 159h-151l-17.999 15-12.001-15h-30l-16.263 15-13.737-15h-60l-30 60h30c16.538 0 30 13.462 30 30v30h271c33.091 0 61-26.909 61-60s-27.909-60-61-60z" fill="#4dd3ff"/><path d="m60 249v30h271c33.091 0 61-26.909 61-60h-362c16.538 0 30 13.462 30 30z" fill="#3af"/><circle cx="240" cy="279" fill="#3d5b99" r="60"/><path d="m255 253.612-15 10.388-15-10.388c-8.8 5.237-15 14.431-15 25.388 0 16.538 13.462 30 30 30s30-13.462 30-30c0-10.957-6.2-20.151-15-25.388z" fill="#f3f5f9"/><path d="m255 279v-25.388c-4.481-2.666-9.419-4.612-15-4.612s-10.519 1.946-15 4.612v25.388z" fill="#3d5b99"/><g><path d="m90 159h30v45h-30z" fill="#3af"/></g><g><path d="m150 159h30v45h-30z" fill="#3af"/></g><path d="m482 174v45 45h30v-45-45z" fill="#ffdf40"/><path d="m482 219h30v45h-30z" fill="#ffbe40"/></g></svg>