<?xml version="1.0" encoding="UTF-8"?>
<svg width="20px" height="20px" viewBox="0 0 20 20" version="1.1" xmlns="http://www.w3.org/2000/svg" xmlns:xlink="http://www.w3.org/1999/xlink">
    <title>Ellipse_1</title>
    <g id="Page-1" stroke="none" stroke-width="1" fill="none" fill-rule="evenodd">
        <g id="last-name" transform="translate(-355.000000, -15.000000)" fill="#6BBCB9" fill-rule="nonzero">
            <path d="M369.768,35 L360.942,35 C357.568,35 355.855,33.312 355.855,29.975 L355.855,22.281 C355.855,19.818 356.792,18.257 358.638,17.606 C359.01,17.512 359.199,17.677 359.199,18.106 L359.199,18.406 C359.140877,18.835514 359.287327,19.2674521 359.59469,19.5730474 C359.902053,19.8786428 360.334828,20.0225987 360.764,19.962 L360.827,19.962 C361.257199,20.0226867 361.690927,19.8778417 361.998332,19.5708302 C362.305736,19.2638187 362.451136,18.8302758 362.391,18.4 L362.391,17.919 C362.366484,17.7352807 362.429576,17.5507012 362.561421,17.4204288 C362.693265,17.2901563 362.878588,17.229282 363.062,17.256 L367.649,17.256 C367.832412,17.229282 368.017735,17.2901563 368.149579,17.4204288 C368.281424,17.5507012 368.344516,17.7352807 368.32,17.919 L368.32,18.4 C368.260835,18.8299946 368.406822,19.2628395 368.714328,19.5691662 C369.021833,19.875493 369.455236,20.0198159 369.885,19.959 L369.948,19.959 C370.377445,20.019119 370.810242,19.8744859 371.11726,19.5682544 C371.424277,19.2620229 371.570018,18.8295976 371.511,18.4 L371.511,18.1 C371.511,17.656 371.717,17.5 372.118,17.616 C373.933,18.283 374.855,19.838 374.855,22.281 L374.855,29.975 C374.855,33.312 373.142,35 369.768,35 Z M373.335,22.95 C373.36145,22.7461679 373.290686,22.5417407 373.14388,22.3978826 C372.997074,22.2540245 372.791254,22.1874211 372.588,22.218 L358.122,22.218 C357.918746,22.1874211 357.712926,22.2540245 357.56612,22.3978826 C357.419314,22.5417407 357.34855,22.7461679 357.375,22.95 L357.375,29.837 C357.375,32.267 358.633,33.496 361.11,33.496 L369.6,33.496 C372.077,33.496 373.335,32.267 373.335,29.837 L373.335,22.95 Z M369.955,31.992 L369.88,31.992 C369.37031,32.066485 368.855206,31.8974747 368.48872,31.5355083 C368.122234,31.1735418 367.946845,30.6605749 368.015,30.15 L368.015,30.076 C367.946646,29.5656636 368.121636,29.0528159 368.48768,28.6907012 C368.853725,28.3285865 369.368431,28.1591422 369.878,28.233 L369.955,28.233 C370.464569,28.1591422 370.979275,28.3285865 371.34532,28.6907012 C371.711364,29.0528159 371.886354,29.5656636 371.818,30.076 L371.818,30.15 C371.886007,30.6601757 371.710863,31.1727213 371.344867,31.5345924 C370.97887,31.8964634 370.464372,32.0657857 369.955,31.992 L369.955,31.992 Z M369.955,27.481 L369.88,27.481 C369.370431,27.5548578 368.855725,27.3854135 368.48968,27.0232988 C368.123636,26.6611841 367.948646,26.1483364 368.017,25.638 L368.017,25.564 C367.948646,25.0536636 368.123636,24.5408159 368.48968,24.1787012 C368.855725,23.8165865 369.370431,23.6471422 369.88,23.721 L369.955,23.721 C370.464569,23.6471422 370.979275,23.8165865 371.34532,24.1787012 C371.711364,24.5408159 371.886354,25.0536636 371.818,25.564 L371.818,25.638 C371.886354,26.1483364 371.711364,26.6611841 371.34532,27.0232988 C370.979275,27.3854135 370.464569,27.5548578 369.955,27.481 L369.955,27.481 Z M365.395,31.992 L365.318,31.992 C364.808628,32.0657857 364.29413,31.8964634 363.928133,31.5345924 C363.562137,31.1727213 363.386993,30.6601757 363.455,30.15 L363.455,30.076 C363.386646,29.5656636 363.561636,29.0528159 363.92768,28.6907012 C364.293725,28.3285865 364.808431,28.1591422 365.318,28.233 L365.393,28.233 C365.90241,28.1594916 366.416814,28.3290917 366.782613,28.6911587 C367.148413,29.0532257 367.32328,29.565863 367.255,30.076 L367.255,30.15 C367.323007,30.6601757 367.147863,31.1727213 366.781867,31.5345924 C366.41587,31.8964634 365.901372,32.0657857 365.392,31.992 L365.395,31.992 Z M365.395,27.481 L365.318,27.481 C364.808431,27.5548578 364.293725,27.3854135 363.92768,27.0232988 C363.561636,26.6611841 363.386646,26.1483364 363.455,25.638 L363.455,25.564 C363.386993,25.0538243 363.562137,24.5412787 363.928133,24.1794076 C364.29413,23.8175366 364.808628,23.6482143 365.318,23.722 L365.393,23.722 C365.90241,23.6484916 366.416814,23.8180917 366.782613,24.1801587 C367.148413,24.5422257 367.32328,25.054863 367.255,25.565 L367.255,25.639 C367.323007,26.1491757 367.147863,26.6617213 366.781867,27.0235924 C366.41587,27.3854634 365.901372,27.5547857 365.392,27.481 L365.395,27.481 Z M360.835,31.992 L360.755,31.992 C360.246105,32.064739 359.732515,31.8949502 359.367251,31.5332216 C359.001988,31.1714931 358.827213,30.659578 358.895,30.15 L358.895,30.076 C358.826867,29.5662613 359.001488,29.0540444 359.366799,28.6920725 C359.73211,28.3301006 360.245908,28.1601894 360.755,28.233 L360.83,28.233 C361.339887,28.1584425 361.855199,28.3275748 362.221733,28.6897849 C362.588267,29.0519951 362.763502,29.5652645 362.695,30.076 L362.695,30.15 C362.763007,30.6601757 362.587863,31.1727213 362.221867,31.5345924 C361.85587,31.8964634 361.341372,32.0657857 360.832,31.992 L360.835,31.992 Z M360.835,27.481 L360.755,27.481 C360.245908,27.5538106 359.73211,27.3838994 359.366799,27.0219275 C359.001488,26.6599556 358.826867,26.1477387 358.895,25.638 L358.895,25.564 C358.827213,25.054422 359.001988,24.5425069 359.367251,24.1807784 C359.732515,23.8190498 360.246105,23.649261 360.755,23.722 L360.83,23.722 C361.339887,23.6474425 361.855199,23.8165748 362.221733,24.1787849 C362.588267,24.5409951 362.763502,25.0542645 362.695,25.565 L362.695,25.639 C362.763007,26.1491757 362.587863,26.6617213 362.221867,27.0235924 C361.85587,27.3854634 361.341372,27.5547857 360.832,27.481 L360.835,27.481 Z M369.935,19.21 L369.902,19.21 C369.680393,19.2446273 369.45538,19.1732572 369.294245,19.0172311 C369.133109,18.861205 369.054529,18.6386074 369.082,18.416 L369.082,15.794 C369.054753,15.5719974 369.132963,15.3500355 369.293362,15.1941519 C369.453762,15.0382683 369.677866,14.9664262 369.899,15 L369.932,15 C370.153607,14.9653727 370.37862,15.0367428 370.539755,15.1927689 C370.700891,15.348795 370.779471,15.5713926 370.752,15.794 L370.752,18.417 C370.779547,18.6398095 370.700844,18.8626201 370.539462,19.018694 C370.378081,19.1747679 370.152764,19.2459799 369.931,19.211 L369.935,19.21 Z M360.815,19.21 L360.779,19.21 C360.557393,19.2446273 360.33238,19.1732572 360.171245,19.0172311 C360.010109,18.861205 359.931529,18.6386074 359.959,18.416 L359.959,15.794 C359.931529,15.5713926 360.010109,15.348795 360.171245,15.1927689 C360.33238,15.0367428 360.557393,14.9653727 360.779,15 L360.812,15 C361.033607,14.9653727 361.25862,15.0367428 361.419755,15.1927689 C361.580891,15.348795 361.659471,15.5713926 361.632,15.794 L361.632,18.417 C361.659547,18.6398095 361.580844,18.8626201 361.419462,19.018694 C361.258081,19.1747679 361.032764,19.2459799 360.811,19.211 L360.815,19.21 Z" id="Ellipse_1"></path>
        </g>
    </g>
</svg>